<?xml version="1.0" encoding="utf-8"?>
<!-- Generator: Adobe Illustrator 23.0.6, SVG Export Plug-In . SVG Version: 6.00 Build 0)  -->
<svg version="1.1" id="Layer_1" xmlns="http://www.w3.org/2000/svg" xmlns:xlink="http://www.w3.org/1999/xlink" x="0px" y="0px"
	 viewBox="0 0 62.3619118 62.5950012" style="enable-background:new 0 0 62.3619118 62.5950012;" xml:space="preserve">
<style type="text/css">
	.st0{fill:#655442;}
</style>
<path class="st0" d="M44.2669678,15.2340012c-1.1289673-3.0309982-2.3269653-5.8509979-3.8629761-8.6100006
	C39.6939697,5.3470001,38.7160034,3.8590012,37.4240112,3.368C37.0459595,3.2240028,36.5369873,3.196003,36.2650146,3.257
	c-1.6520386,0.368-3.118042,1.0930023-4.5830078,1.7100029c-1.4760132,0.625-2.9020386,1.2949982-4.3040161,1.9869995
	c-5.7969971,2.8670006-10.8270264,5.7619972-16.2290039,9.053997C9.9119873,16.762001,8.5930176,17.493,7.2860107,18.4360008
	c-1.085022,0.7830009-2.697998,2.0579987-2.9810181,3.368c-0.367981,1.6980019,0.6669922,4.1619987,1.1040039,5.2970009
	c1.2680054,3.2989998,2.6660156,5.8239975,4.526001,8.5009995c0.401001,0.5779991,0.8859863,1.1359978,1.3809814,1.8769989
	c0.3880005,0.5849991,1.0809937,1.6279984,0.9920044,2.3190002c-0.0540161,0.4300003-0.6970215,0.9370003-1.1029663,1.269001
	c-2.348999,1.9199982-4.69104,3.2659988-7.0650024,5.0229988c-0.6220093,0.4599991-2.394043,1.5169983-2.4840088,2.3740005
	c-0.0380249,0.355999,0.1809692,0.9629974,0.3309937,1.3250008c0.7409668,1.7849998,2.8179932,0.9559975,4.3599854-0.0550003
	c1.960022-1.2859993,3.6229858-2.5030022,5.8519897-3.5880013c1.1310425-0.5519981,2.3460083-1.1850014,3.5880127-1.1590004
	c0.9699707,0.0180016,1.8400269,0.9249992,2.5380249,1.545002c0.6959839,0.6169968,1.2719727,1.2729988,1.7659912,1.8209991
	c2.9259644,3.2399979,5.0599976,6.7929993,7.1759644,10.7630005c0.5120239,0.961998,0.8600464,1.692997,1.6550293,1.9319992
	c1.2639771,0.3810005,2.5269775-0.5470009,3.367981-1.0499992c0.0010376-0.9230003-0.1069946-1.5149994-0.4420166-2.2070007
	c-0.3309937-0.6840019-1.0689697-1.0929985-1.0479736-1.9300003c0.0280151-1.2039986,2.21698-2.0699997,3.2020264-2.5950012
	c6.3809814-3.4059982,12.6069946-6.7369995,18.8769531-10.1009979c1.1830444-0.6350021,2.5440063-1.3110008,3.7529907-2.0440025
	c0.9550171-0.5769997,2.9100342-1.6629982,2.9250488-2.868c0.0109863-0.822998-0.7540283-1.2739983-1.3240356-1.711998
	c-1.6409912,0.7509995-3.0769653,1.7070007-5.2999878,1.8759995c-0.7189941-1.9059982-1.4959717-3.8320007-2.4829712-5.7960014
	c-0.9560547-1.8999977-2.1150513-3.7609978-2.3170166-6.0159988c-0.2960205-3.3050003,1.4959717-5.1559982,3.5310059-6.4029999
	c1.1749878-1.6049995,3.4559937-3.4370003,3.6989746-6.0709991c0.0360107-0.3950005,0.0109863-0.9640007-0.1119995-1.3239975
	c-0.2160034-0.6450005-1.322998-1.7930031-2.0410156-1.7670021c-0.6849976,0.0219994-1.598999,1.2919998-2.0419922,1.8220024
	c-1.2879639,1.5339966-2.2619629,2.9569969-3.3129883,4.5249977c-0.5159912,0.7700005-0.757019,1.8450012-1.710022,2.2089996
	C45.2890015,18.3549995,44.8359985,16.7579994,44.2669678,15.2340012 M37.0930176,0h0.0539551
	c1.3670044,0.0540009,2.7340088,0.8470001,3.5889893,1.821003c2.8330078,3.2319984,4.4750366,8.8569984,6.1810303,13.1919975
	c1.5209961-2.5340004,2.7390137-5.4729996,5.5750122-6.5669975c2.5050049-0.9670029,4.4970093,0.8949966,5.3549805,2.4839973
	c0.5059814,0.9370003,0.632019,2.2200012,0.2200317,3.5320015C56.8850098,18.2270012,53,21.6819992,50.6709595,24.2870026
	c0.809021,3.0369987,1.2950439,6.2889977,2.3730469,9.2729988c0.2639771,0.7269974,0.7279663,2.3099976,1.4359741,2.428997
	c0.8430176,0.1410027,1.5350342-0.8120003,2.0969849-1.1589966c1.44104-0.8910027,4.1570435-1.5620003,5.1880493,0.2209969
	c0.4889526,0.8430023,0.8009644,2.6780014,0.440979,3.9729996c-0.2000122,0.7270012-1.0130005,1.4770012-1.598999,1.9880028
	c-2.1389771,1.8579979-5.2290039,3.1030006-7.9500122,4.4710007c-3.960022,1.9899979-7.8659668,3.7839966-11.8670044,5.7959976
	c-0.9719849,0.487999-1.947998,1.0340004-2.9259644,1.4900017c-1.0050049,0.468998-2.0760498,0.8799973-2.9240112,1.4349976
	c-0.6099854,0.3980026-1.5410156,1.2900009-1.6010132,2.0419998c-0.1010132,1.2560005,1.1530151,1.9510002,0.9940186,3.257
	c-0.0670166,0.5400009-0.5450439,0.9680023-0.9380493,1.269001c-1.2669678,0.9700012-2.7709961,1.3909988-4.5269775,1.8230019
	h-0.6079712c-1.7839966-0.2820015-3.0890503-2.0400009-3.9730225-3.5349998
	c-0.8239746-1.3880005-1.5449829-2.8980026-2.4290161-4.3590012c-1.2059937-1.993-2.6969604-4.098999-4.1950073-6.0159988
	c-0.4829712-0.618-1.0939941-1.6480026-1.7119751-1.8220024c-1.2410278-0.3499985-2.5570068,0.5820007-3.4760132,1.1590004
	c-1.9649658,1.230999-3.7310181,2.4820023-5.9069824,3.5320015c-1.7990112,0.8689995-3.947998,1.1650009-5.1890259-0.2200012
	c-0.4660034-0.5219994-1.4799805-2.3040009-1.2680054-3.4790001c0.1589966-0.8919983,1.4840088-1.7029991,2.2080078-2.262001
	c0.90802-0.7029991,1.7380371-1.336998,2.5380249-1.875c1.8590088-1.2559967,3.9349976-1.9519997,5.1879883-3.6449966
	C7.2019653,33.7910004,2.2269897,29.6399994,0,22.7420006v-0.7739983c0.414978-2.3880005,2.4160156-3.5550003,4.1950073-4.7470016
	c8.651001-5.7919998,17.552002-10.8330002,27.5429688-15.2329979C33.2059937,1.3410034,35.401001,0.2070007,37.0930176,0"/>
<path class="st0" d="M30.6341553,19.3197021c1.1169434-0.2099991,1.8769531,0.5530014,1.8209839,1.4900017
	c-0.098999,1.6879997-2.2789917,1.3979988-2.7590332,0.7729988C28.9761353,20.6447029,29.6531372,19.5037041,30.6341553,19.3197021"
	/>
<path class="st0" d="M20.4779663,24.3418999c1.1469727-0.1999969,1.8859863,0.4260025,1.8209839,1.4360008
	c-0.1099854,1.7200012-3.1600342,1.7159996-3.0350342-0.2220001C19.30896,24.8379021,19.7649536,24.4659004,20.4779663,24.3418999"
	/>
<path class="st0" d="M19.7601318,32.2352982c1.3639526,1.1750031,2.6019897,2.477005,3.9189453,3.6970024
	c0.6640015-1.9119987,1.322998-3.8260002,1.9860229-5.7399979c2.1090088-0.7060013,4.2880249-1.3430023,6.348999-2.0960007
	c1.3710327,1.1300011,2.4310303,2.5719986,3.7540283,3.7529984c0.9159546-1.8610001,1.7599487-3.7959976,2.6489868-5.685997
	c0.7199707-0.1990013,1.5050049-0.3330002,2.2080078-0.5510025c0.6480103,0.6710014,1.302002,2.1459999,1.5459595,3.6420021
	c0.2180176,1.3459988,0.2919922,3.487999-0.1659546,4.6369972c-0.4310303,1.0779991-2.4860229,2.0820007-3.8650513,2.5390015
	c-4.0539551,1.3419991-7.907959,2.6020012-11.9769897,4.0289993c-1.4450073,0.507-4.1809692,1.6020012-5.9609985,0.5529976
	c-0.532959-0.3139954-1.098999-1.5179977-1.6010132-2.5949974c-0.631958-1.355999-1.5379639-3.704998-0.4969482-5.0779991
	C18.5230713,32.7853012,19.1821289,32.7273026,19.7601318,32.2352982"/>
</svg>
