<?xml version="1.0" encoding="utf-8"?>
<!-- Generator: Adobe Illustrator 23.0.6, SVG Export Plug-In . SVG Version: 6.00 Build 0)  -->
<svg version="1.1" id="Layer_1" xmlns="http://www.w3.org/2000/svg" xmlns:xlink="http://www.w3.org/1999/xlink" x="0px" y="0px"
	 viewBox="0 0 168.6059418 142.8066254" style="enable-background:new 0 0 168.6059418 142.8066254;" xml:space="preserve">
<style type="text/css">
	.st0{fill:#22282A;}
	.st1{fill:#42464C;}
	.st2{fill:#678CB1;}
	.st3{fill:#93C763;}
	.st4{fill:#EC7600;}
	.st5{fill:#F1F2F3;}
</style>
<g>
	<path class="st0" d="M154.7592926,30.347868l13.8466492-3.1798458L157.0449219,7.9715762l-9.5947723,11.832056
		c-8.2862396-9.5119104-19.7177811-16.3981171-33.0845261-18.8477364
		c-11.875206-2.1785898-23.5674362-0.5472376-33.8251114,4.0170979V4.9712663l-0.0880356,0.0431571
		c-2.1993027,0.9788108-49.651825,25.7684708-52.2378235,27.3894653l-0.0258942,0.012085h0.0051804
		C14.488842,41.0077667,4.2915926,55.1012726,1.142823,72.2710419c-5.95228,32.4544296,15.5366945,63.5951385,47.9945755,69.5474243
		c14.5406189,2.6671295,28.8119431-0.1898956,40.6819763-7.0605621l0.0051727,0.0103455l0.2675705-0.1708984
		c1.2878189-0.7543793,45.8712311-28.7618637,48.0877991-30.3966751l0.0897675-0.0517883l-0.0034485-0.0086288
		c11.3763123-8.4070816,19.7143402-20.9814377,22.4660645-35.9898834
		C163.199173,54.7076759,160.7806244,41.5066643,154.7592926,30.347868z M82.6379623,132.3169098
		c-23.1703873,13.6015167-54.1850815,3.7788849-69.2815704-21.9343567
		C-1.7418247,84.6658707,4.7973971,52.7949333,27.9677887,39.1916962
		c23.1652069-13.601511,54.1868057-3.7788658,69.2832947,21.9378128
		C112.3475723,86.8427353,105.8048935,118.7154083,82.6379623,132.3169098z"/>
</g>
<g>
	<circle class="st1" cx="60" cy="82.806633" r="60"/>
	<g>
		<path class="st0" d="M80.6999969,122.9066315C74.5,126.2066345,67.5,128.0066223,59.9999962,128.0066223
			c-24.7999954,0-44.7999954-20.1999893-44.7999954-45.1999893s20-45.2000008,44.7999992-45.2000008
			s44.8000031,20.2000008,44.8000031,45.2000008c0,2.9000015-0.3000031,5.8000031-0.8000031,8.5
			c-2.4000015,10.1999969-9,8.5999985-9,8.5999985s-9-4.3000031-15.6999969,0.9000015
			C75,104.106636,78,115.306633,80.6999969,122.9066315z M69.0999985,111.2066345
			c0-3.1999969-2.5999985-5.8000031-5.7999992-5.8000031S57.5,108.0066299,57.5,111.2066345
			c0,3.1999969,2.5999985,5.8000031,5.7999992,5.8000031S69.0999985,114.4066315,69.0999985,111.2066345z"/>
		<circle class="st2" cx="39.0999985" cy="96.806633" r="10.6999998"/>
		<circle class="st3" cx="35.5999985" cy="69.6066284" r="10.7000008"/>
		<circle class="st4" cx="60" cy="55.0066338" r="10.6999998"/>
		<circle class="st5" cx="84.5" cy="68.6066284" r="10.6999989"/>
	</g>
</g>
</svg>
